# xmcd
#
# Track frame offsets:
#	150
#	11189
#	20915
#	33917
#	44866
#	56857
#	74032
#	93141
#	108202
#	120730
#	135767
#	148432
#	163264
#	171311
#	190376
#
# Disc length: 2687 seconds
#
# Revision: 0
# Processed by: cddbd v1.5.2PL0 Copyright (c) Steve Scherf et al.
# Submitted via: audiograbber 1.83.01
#
DISCID=e70a7d0f
DTITLE=Various Artist - Mirão The Gold Hits 1 2007
DYEAR=2007
DGENRE=Soundtrack
TTITLE0=Chuck Berry - Back in the USA
TTITLE1=Bill Monroe and His Bluegrass Bo - Blue Moon Of Kentucky
TTITLE2=Chuck Berry - Get Your Kicks on Route 66
TTITLE3=Solomon Burke - Down In The Valley
TTITLE4=Johnny Cash and June Carter - I'm Going To Jackson
TTITLE5=Jerry Jeff Walker - What I Like About Texas
TTITLE6=Creedence Clearwater Revival - The Midnight Special
TTITLE7=Solomon Burke - Goodbye Baby Baby Goodbye
TTITLE8=Chuck Berry - Louie Louie
TTITLE9=Solomon Burke - That's How I Got to Memphis
TTITLE10=Chuck Berry - Nadine
TTITLE11=Solomon Burke - Baby, Come On Home
TTITLE12=Chuck Berry - Let It Rock
TTITLE13=Jerry Jeff Walker - Up Against the Wall Redneck Mother
TTITLE14=Solomon Burke - Cry To Me
EXTD=
EXTT0=
EXTT1=
EXTT2=
EXTT3=
EXTT4=
EXTT5=
EXTT6=
EXTT7=
EXTT8=
EXTT9=
EXTT10=
EXTT11=
EXTT12=
EXTT13=
EXTT14=
PLAYORDER=
